<svg width="123" height="66" viewBox="0 0 123 66" fill="none" xmlns="http://www.w3.org/2000/svg">
<path d="M0 44.9062C0 43.9062 0.0625 42.8125 0.1875 41.625C0.3125 40.375 0.59375 39.25 1.03125 38.25C1.46875 37.25 2.09375 36.4062 2.90625 35.7188C3.78125 35.0312 4.9375 34.6875 6.375 34.6875C6.375 35.5 6.28125 36.25 6.09375 36.9375C5.96875 37.625 5.78125 38.3125 5.53125 39C5.34375 39.6875 5.15625 40.4375 4.96875 41.25C4.84375 42 4.78125 42.8438 4.78125 43.7812C4.78125 46.1562 5.09375 48.375 5.71875 50.4375C6.34375 52.5 7.28125 54.3125 8.53125 55.875C9.84375 57.375 11.4375 58.5625 13.3125 59.4375C15.2501 60.3125 17.5312 60.75 20.1562 60.75C21.2812 60.75 22.6562 60.5 24.2812 60C25.9062 59.5 27.5312 58.9062 29.1562 58.2188C30.7812 57.5312 32.2812 56.8438 33.6562 56.1562C35.0312 55.4688 36.0001 54.9688 36.5625 54.6562C37.9375 53.9062 39.0312 52.875 39.8438 51.5625C40.6562 50.1875 41.2812 48.7188 41.7188 47.1562C42.1562 45.5312 42.4375 43.9062 42.5625 42.2812C42.6875 40.5938 42.75 39.0938 42.75 37.7812C42.75 35.6562 42.5312 33.5938 42.0938 31.5938C41.7188 29.5312 41.2812 27.5 40.7812 25.5C40.3438 23.5 39.9062 21.5 39.4688 19.5C39.0938 17.5 38.9062 15.4688 38.9062 13.4062C39.5938 11.4688 40.6562 9.7188 42.0938 8.15625C43.5938 6.53125 45.2812 5.15625 47.1562 4.03125C49.0938 2.84375 51.1562 1.90625 53.3438 1.21875C55.5312 0.53125 57.6562 0.125 59.7188 0C61.4062 0.4375 62.6874 1 63.5624 1.6875C64.4374 2.3125 65.0312 3 65.3438 3.75C65.7188 4.5 65.8125 5.21875 65.6251 5.90625C65.4375 6.59375 65.125 7.21875 64.6874 7.78125C64 6.28125 63.0938 5.28125 61.9688 4.78125C60.9062 4.28125 59.6875 4.125 58.3125 4.3125C57.0001 4.5 55.6562 4.96875 54.2812 5.71875C52.9062 6.46875 51.5938 7.3125 50.3438 8.25C49.0938 9.1875 48.0001 10.1875 47.0625 11.25C46.1251 12.25 45.4374 13.125 45 13.875C45 15.75 45.1875 17.5938 45.5625 19.4062C46.0001 21.1562 46.4374 22.9375 46.875 24.75C47.375 26.5 47.8125 28.2812 48.1875 30.0938C48.6251 31.8438 48.8438 33.6562 48.8438 35.5312C48.8438 40.0312 48.1251 44.1562 46.6875 47.9062C45.3125 51.5938 43.2812 54.7812 40.5938 57.4688C37.9688 60.0938 34.7501 62.125 30.9375 63.5625C27.1875 65 22.9688 65.7188 18.2812 65.7188C15.3438 65.7188 12.7188 65.125 10.4062 63.9375C8.15625 62.75 6.25 61.1875 4.6875 59.25C3.1875 57.25 2.03125 55 1.21875 52.5C0.40625 50 0 47.4688 0 44.9062ZM67.3124 63.2812C67.3124 61.8438 67.6251 60.3438 68.2501 58.7812C68.8751 57.1562 69.4374 55.7812 69.9374 54.6562C70.375 53.7812 71.0625 52.4375 72.0001 50.625C72.9375 48.75 74 46.6562 75.1874 44.3438C76.375 42.0312 77.625 39.5938 78.9374 37.0312C80.3124 34.4688 81.5938 32.0312 82.7812 29.7188C83.9688 27.4062 85.0312 25.3438 85.9688 23.5312C86.9688 21.6562 87.6875 20.2812 88.1251 19.4062C88.1875 19.3438 88.3125 19.125 88.5001 18.75C88.7501 18.375 89.0001 18 89.2501 17.625C89.5625 17.25 89.8438 16.9062 90.0938 16.5938C90.3438 16.2188 90.5 15.9688 90.5624 15.8438C90.625 15.7188 90.5938 15.5938 90.4688 15.4688C90.3438 15.3438 90.2812 15.2188 90.2812 15.0938C87.5938 15.4062 84.7812 15.8125 81.8438 16.3125C78.9688 16.8125 76.0938 17.4062 73.2188 18.0938C70.4062 18.7188 67.6874 19.4688 65.0624 20.3438C62.4374 21.1562 60.0625 22.0938 57.9375 23.1562C57.2501 23.1562 56.6251 23.0312 56.0625 22.7812C55.5001 22.5312 55.2188 22.0312 55.2188 21.2812V21C55.2188 20.9375 55.2501 20.8438 55.3125 20.7188C55.4375 20.4062 55.625 19.9375 55.875 19.3125C56.1874 18.625 56.4062 18.25 56.5312 18.1875L65.0624 14.5312L122.156 0C122.843 1.75 122.781 3.15625 121.969 4.21875C121.219 5.21875 120 6.0625 118.312 6.75C116.625 7.375 114.656 7.9375 112.406 8.4375C110.219 8.875 108 9.4375 105.75 10.125C103.562 10.75 101.531 11.625 99.6562 12.75C97.7812 13.8125 96.375 15.25 95.4374 17.0625C91.375 25.125 87.1875 33.1562 82.8751 41.1562C78.6251 49.1562 74.7188 57.3125 71.1562 65.625C71.0938 65.625 70.9688 65.625 70.7812 65.625C70.6562 65.6875 70.5625 65.7188 70.5001 65.7188C69.6875 65.7188 68.9375 65.5312 68.2501 65.1562C67.6251 64.7812 67.3124 64.1562 67.3124 63.2812Z" fill="#264653"/>
</svg>
